<svg xmlns="http://www.w3.org/2000/svg" viewBox="0 0 512 512" id="admin">
  <path d="M326.322 350.903C301.621 353.911 275.017 339.018 259.357 320.926C246.728 306.336 236.494 286.92 230.904 268.575C226.699 254.775 229.263 259.802 221.168 249.545C213.032 239.236 207.886 218.272 209.547 205.862L209.627 205.312C210.165 201.325 211.434 197.551 214.556 194.818L214.858 194.561C207.158 158.823 204.149 123.836 230.303 95.2272C251.651 71.8745 283.313 57.4575 314.878 56.0731C357.349 53.0123 412.73 79.1134 427.493 121.451C433.717 139.301 432.701 160.824 429.891 179.277L427.007 195.427C428.725 196.967 430.034 198.349 430.939 200.53L431.142 201.038C432.351 204 431.924 207.748 431.912 210.869C431.857 225.491 427.648 243.783 416.049 253.758C413.89 255.615 413.581 255.733 412.887 258.564L407.605 276.39C394.31 312.867 366.594 345.297 326.322 350.903ZM387.868 151.094C356.433 173.805 345.967 176.628 305.332 176.616C275.754 176.607 267.711 173.89 247.992 154.161C232.487 188.363 237.783 232.695 250.556 266.656C254 275.813 258.564 284.239 264.094 292.291C274.915 307.363 289.437 318.386 308.115 321.393C325.509 324.194 345.739 321.115 360.156 310.564C384.278 292.912 399.037 251.998 403.397 222.477L404.36 215.862C405.118 211.482 404.946 206.687 404.938 202.249C404.904 184.635 405.497 163.989 390.254 152.051C389.726 151.637 389.036 150.931 388.334 150.953L387.868 151.094Z" transform="scale(.8)" fill="#ffffff" class="color000000 svgShape"></path>
  <path d="M533.517 453.756L537.813 506.252C538.004 513.27 539.961 524.838 529.632 525.472C523.282 525.862 516.736 525.541 510.366 525.54L117.892 525.552C101.301 525.54 103.31 518.806 103.713 505.469L104.114 491.562L110.828 436.039C116.965 397.613 121.927 392.86 161.167 377.698L219.375 357.496C225.328 355.23 231.293 352.659 236.876 349.576C240.291 347.69 243.435 345.379 247.015 343.806C256.543 342.686 258.879 352.168 261.598 359.239L295.116 452.95C296.07 455.916 296.853 458.997 298.106 461.849L309.631 414.536C309.992 412.689 309.512 412.603 308.529 410.981L304.323 404.078C300.794 397.954 297.84 391.091 301.305 384.219C305.51 375.878 313.451 377.417 321.328 377.428C330.419 377.44 339.361 376.903 341.683 388.326C343.243 395.996 337.814 403.291 333.84 409.314C331.425 412.975 331.69 412.707 332.706 416.87L344.183 462.269L379.993 359.688C387.313 339.049 389.608 341.469 405.984 350.535C410.743 353.169 415.929 355.273 420.998 357.233L451.719 367.485C464.355 371.576 477.137 376.108 489.316 381.414C519.594 394.606 524.609 400.144 529.862 431.271L533.517 453.756Z" transform="scale(.8)" fill="#ffffff" class="color000000 svgShape"></path>
</svg>
