<?xml version="1.0" standalone="no"?>
<!DOCTYPE svg PUBLIC "-//W3C//DTD SVG 20010904//EN"
 "http://www.w3.org/TR/2001/REC-SVG-20010904/DTD/svg10.dtd">
<svg version="1.0" xmlns="http://www.w3.org/2000/svg"
 width="276.000000pt" height="94.000000pt" viewBox="0 0 276.000000 94.000000"
 preserveAspectRatio="xMidYMid meet">

<g transform="translate(0.000000,94.000000) scale(0.100000,-0.100000)"
fill="#000000" stroke="none">
<path d="M2501 890 c-50 -23 -94 -57 -225 -174 -67 -61 -90 -76 -96 -65 -5 8
-39 52 -77 99 -87 108 -147 150 -214 150 -96 0 -149 -41 -149 -115 0 -50 24
-90 142 -237 47 -58 88 -110 91 -115 4 -6 -26 -48 -65 -94 -127 -149 -158
-197 -158 -240 0 -52 30 -83 73 -75 39 8 110 52 223 137 50 38 94 69 99 69 4
0 44 -33 89 -74 92 -84 152 -126 175 -126 10 1 5 7 -12 16 -34 19 -92 99 -175
242 -35 61 -81 128 -102 150 -32 33 -46 40 -90 44 -29 3 -63 14 -78 25 -64 47
-113 202 -79 247 41 54 211 -34 247 -128 6 -16 8 -49 4 -77 -6 -43 -3 -54 21
-89 33 -48 298 -299 288 -273 -3 10 -24 56 -45 103 -38 83 -39 85 -20 100 11
8 75 53 142 100 176 121 232 201 217 312 -4 28 -16 51 -36 71 -40 41 -123 48
-190 17z m-21 -159 c0 -5 -41 -41 -91 -81 -50 -39 -88 -74 -85 -77 2 -3 46 29
97 70 51 42 97 74 101 71 13 -8 -4 -25 -93 -95 -43 -35 -79 -67 -79 -72 0 -6
8 -3 18 5 133 113 182 145 182 119 0 -3 -40 -37 -90 -76 -49 -38 -89 -74 -90
-79 0 -5 8 -2 18 6 92 78 174 139 180 133 8 -8 -115 -124 -163 -156 -16 -10
-47 -19 -68 -19 -26 0 -52 -10 -82 -30 -24 -16 -46 -30 -49 -30 -17 0 -1 29
33 61 24 23 41 50 45 71 7 40 22 55 126 132 76 56 90 63 90 47z m-383 -403
c-154 -173 -217 -228 -263 -228 -14 0 -30 10 -39 24 -20 30 -13 45 42 98 48
47 295 189 307 177 5 -5 -14 -34 -47 -71z"/>
<path d="M143 569 c-17 -5 -43 -23 -57 -40 -22 -26 -26 -40 -26 -96 0 -61 2
-67 34 -99 27 -27 42 -34 73 -34 58 0 83 10 83 32 0 17 -5 19 -44 13 -39 -6
-48 -4 -70 18 -34 34 -36 102 -4 142 19 24 26 27 65 22 35 -4 45 -1 54 14 10
19 8 20 -61 34 -8 2 -29 -1 -47 -6z"/>
<path d="M330 448 c-23 -68 -45 -129 -47 -135 -4 -9 5 -13 24 -13 25 0 32 5
39 33 9 30 13 32 61 35 51 3 51 3 63 -33 10 -29 16 -35 40 -35 l28 0 -38 108
c-62 173 -55 162 -93 162 l-34 0 -43 -122z m103 15 l15 -53 -40 0 c-33 0 -39
3 -34 18 2 9 10 36 17 60 14 50 21 46 42 -25z"/>
<path d="M580 435 l0 -135 27 0 26 0 -6 107 c-3 60 -2 102 3 97 4 -5 33 -52
63 -104 52 -90 57 -95 91 -98 l36 -3 0 135 0 136 -25 0 -25 0 0 -102 0 -103
-60 103 c-58 98 -62 102 -95 102 l-35 0 0 -135z"/>
<path d="M870 550 c0 -16 7 -20 35 -20 l35 0 0 -115 0 -115 25 0 25 0 0 115 0
115 40 0 c33 0 40 3 40 20 0 19 -7 20 -100 20 -93 0 -100 -1 -100 -20z"/>
<path d="M1120 435 l0 -135 75 0 c68 0 75 2 75 20 0 17 -7 20 -50 20 l-50 0 0
40 0 40 45 0 c38 0 45 3 45 20 0 17 -7 20 -45 20 -45 0 -45 0 -45 35 l0 35 50
0 c43 0 50 3 50 20 0 18 -7 20 -75 20 l-75 0 0 -135z"/>
<path d="M1330 435 l0 -135 74 0 c41 0 77 4 80 8 10 17 -11 31 -54 34 -44 3
-45 4 -48 41 l-3 37 50 0 c44 0 51 3 51 19 0 17 -8 20 -47 23 -46 3 -48 4 -48
33 0 29 2 30 48 33 39 3 47 6 47 23 0 17 -7 19 -75 19 l-75 0 0 -135z"/>
<path d="M1550 435 c0 -128 1 -135 20 -135 18 0 20 8 22 107 l3 107 60 -104
c58 -102 61 -105 98 -108 l37 -3 0 135 0 136 -25 0 c-24 0 -24 -1 -27 -102
l-3 -103 -58 103 c-56 98 -59 102 -93 102 l-34 0 0 -135z"/>
</g>
</svg>
