<?xml version="1.0" standalone="no"?>
<!DOCTYPE svg PUBLIC "-//W3C//DTD SVG 20010904//EN"
 "http://www.w3.org/TR/2001/REC-SVG-20010904/DTD/svg10.dtd">
<svg version="1.0" xmlns="http://www.w3.org/2000/svg"
 width="500.000000pt" height="500.000000pt" viewBox="0 0 500.000000 500.000000"
 preserveAspectRatio="xMidYMid meet">

<g transform="translate(0.000000,500.000000) scale(0.100000,-0.100000)"
fill="#000000" stroke="none">
<path d="M4551 4030 c-208 -44 -275 -92 -869 -625 l-55 -49 -16 24 c-77 118
-246 326 -346 426 -149 150 -214 190 -333 204 -192 22 -358 -52 -422 -187 -33
-70 -29 -167 8 -247 40 -84 241 -351 486 -646 39 -47 77 -93 84 -102 12 -14
-1 -33 -104 -150 -197 -224 -411 -493 -446 -563 -31 -58 -30 -164 1 -227 33
-69 75 -92 156 -86 120 10 249 92 772 491 l58 45 148 -144 c350 -340 526 -445
611 -365 32 30 34 48 4 27 -56 -39 -137 -7 -229 91 -83 88 -167 216 -299 453
-170 305 -303 486 -394 532 -27 14 -67 22 -126 25 -165 10 -273 91 -354 266
-53 113 -76 203 -76 299 0 79 19 126 61 149 43 23 150 6 244 -39 159 -77 261
-166 315 -276 36 -73 42 -137 26 -267 -6 -46 -5 -77 4 -103 25 -78 185 -264
350 -409 265 -233 371 -338 458 -452 48 -65 -73 235 -188 466 l-50 98 68 46
c361 244 573 393 628 442 80 70 172 190 214 278 140 293 10 568 -275 581 -38
2 -90 -1 -114 -6z m-196 -451 c0 -8 -101 -95 -225 -195 -124 -99 -225 -187
-225 -195 0 -35 45 -7 254 162 206 165 249 192 258 164 5 -17 -6 -26 -235
-210 -122 -98 -221 -183 -219 -189 2 -6 10 -12 18 -14 8 -1 115 79 238 178
124 99 232 179 240 178 43 -8 12 -41 -186 -200 -225 -181 -253 -204 -253 -217
0 -33 52 1 258 166 207 165 252 194 252 163 0 -10 -364 -337 -424 -382 -36
-26 -46 -28 -130 -28 -108 0 -149 -16 -266 -104 -74 -56 -75 -56 -94 -36 -20
20 -20 20 81 117 83 80 104 105 111 138 26 115 34 142 51 165 22 30 472 360
486 356 6 -1 10 -9 10 -17z m-842 -843 c15 -22 14 -25 -20 -57 -19 -19 -83
-88 -141 -154 -315 -357 -450 -478 -579 -515 -53 -16 -89 -7 -125 32 -58 62
-28 154 83 252 80 70 253 183 434 282 88 48 194 109 235 135 41 26 80 48 86
48 7 1 19 -10 27 -23z"/>
<path d="M205 3042 c-22 -11 -48 -28 -57 -38 -53 -60 -65 -196 -25 -274 33
-66 75 -90 156 -90 97 0 111 6 111 46 l0 33 -70 -6 c-64 -5 -73 -4 -95 17 -67
63 -51 218 24 250 29 11 49 11 111 -5 21 -5 27 -2 37 24 10 28 9 32 -10 42
-39 21 -138 22 -182 1z"/>
<path d="M580 3057 c0 -2 -31 -92 -70 -201 -38 -109 -70 -203 -70 -207 0 -5
19 -9 43 -9 43 0 44 0 58 48 l15 47 78 0 79 0 14 -47 14 -48 45 0 c33 0 45 4
42 13 -2 6 -36 101 -74 209 l-69 198 -52 0 c-29 0 -53 -1 -53 -3z m110 -244
c0 -2 -25 -3 -56 -3 -48 0 -55 2 -50 18 3 9 15 51 27 92 l23 75 28 -90 c15
-49 28 -91 28 -92z"/>
<path d="M913 3053 c-23 -4 -23 -5 -23 -209 l0 -204 35 0 34 0 3 158 3 157 90
-157 90 -158 57 0 57 0 0 204 0 204 -39 4 -40 3 -2 -153 -3 -153 -84 146 c-47
81 -89 148 -95 150 -27 8 -63 11 -83 8z"/>
<path d="M1336 3052 c-13 -3 -16 -12 -14 -35 3 -31 4 -32 61 -35 l57 -3 0
-169 0 -170 40 0 40 0 0 170 0 170 55 0 55 0 0 38 0 37 -138 0 c-76 0 -146 -2
-156 -3z"/>
<path d="M1700 2848 l0 -208 120 0 120 0 0 35 0 35 -75 0 -75 0 0 55 0 55 70
0 70 0 0 35 0 35 -70 0 -70 0 0 50 0 50 75 0 75 0 0 33 0 32 -120 0 -120 0 0
-207z"/>
<path d="M2143 3053 l-113 -4 0 -204 0 -205 115 0 115 0 0 35 0 35 -75 0 -75
0 0 55 0 55 70 0 70 0 0 35 0 35 -71 0 -70 0 3 48 3 47 73 3 72 3 0 34 c0 19
-1 34 -2 33 -2 -1 -54 -4 -115 -5z"/>
<path d="M2360 3052 c-6 -2 -10 -81 -10 -208 l0 -204 40 0 41 0 -3 155 c-2 85
-1 155 2 155 3 -1 44 -69 92 -153 l86 -152 56 -3 56 -3 0 206 0 205 -42 0 -41
0 6 -152 c7 -178 14 -180 -100 20 -42 72 -81 132 -87 133 -50 3 -88 3 -96 1z"/>
</g>
</svg>
