<svg xmlns="http://www.w3.org/2000/svg" width="500" height="500" viewBox="0 0 500 500" version="1.1"><path d="M 285.707 134.016 C 281.909 137.003, 280.634 142.050, 281.308 151.427 C 282.447 167.283, 289.403 183.432, 299.467 193.588 C 306.605 200.790, 313.815 204, 322.856 204 C 330.266 204, 337.667 206.274, 341.591 209.757 C 350.278 217.467, 361.623 233.857, 374.982 258 C 398.468 300.444, 414.155 318.437, 425.247 315.653 C 433.236 313.648, 435.543 307.199, 431.996 296.781 C 430.726 293.052, 429.389 290, 429.025 290 C 428.661 290, 425.543 286.420, 422.096 282.044 C 415.769 274.011, 402.700 261.399, 382.460 243.794 C 364.634 228.289, 346.708 207.292, 345.416 200.403 C 345.045 198.426, 345.115 193.364, 345.571 189.154 C 347.183 174.287, 345.608 166.655, 339.166 158.119 C 325.843 140.464, 295.120 126.612, 285.707 134.016 M 411 156.535 C 398.625 165.538, 387.495 174.160, 386.267 175.697 C 385.039 177.233, 383.534 180.968, 382.924 183.995 C 380.626 195.395, 379.376 197.487, 369.189 206.985 C 359.599 215.926, 359.551 215.995, 361.519 217.920 C 363.483 219.840, 363.569 219.806, 371.500 213.930 C 383.557 204.998, 386.072 204.001, 396.566 203.995 C 404.061 203.991, 406.092 203.628, 409.175 201.745 C 413.720 198.969, 453 164.257, 453 163.017 C 453 160.007, 448.732 162.785, 428.283 179.103 C 415.752 189.102, 404.825 197.332, 404 197.392 C 399.389 197.725, 404.116 192.757, 422.500 177.947 C 449.828 155.933, 448.557 157.128, 446.659 155.231 C 445.571 154.142, 444.708 153.974, 443.800 154.672 C 443.085 155.223, 433.050 163.253, 421.500 172.518 C 401.823 188.302, 397.281 191.158, 396.305 188.361 C 396.086 187.735, 405.796 179.269, 417.883 169.549 C 429.969 159.829, 440.379 151.249, 441.015 150.482 C 442.332 148.894, 441.534 147, 439.547 147 C 438.813 147, 428.153 155.111, 415.858 165.026 C 403.563 174.940, 392.865 182.927, 392.085 182.776 C 391.304 182.624, 390.492 181.978, 390.280 181.340 C 390.067 180.702, 400.291 171.774, 413 161.500 C 433.873 144.626, 437.429 141.126, 434.438 140.396 C 433.922 140.271, 423.375 147.533, 411 156.535 M 341 228.442 C 337.425 230.801, 328.425 236.018, 321 240.035 C 279.797 262.329, 262 276.953, 262 288.518 C 262 295.168, 268.895 300.833, 275.297 299.442 C 287.496 296.791, 303.184 283.711, 327.416 255.988 C 333.420 249.120, 341.492 240.254, 345.354 236.287 C 352.104 229.354, 352.324 228.975, 351.020 226.537 C 350.273 225.141, 349.176 224.035, 348.581 224.077 C 347.986 224.119, 344.575 226.083, 341 228.442" stroke="none" fill="#af2121" fill-rule="evenodd"/><path d="M 450.647 97.529 C 440.560 100.065, 429.141 106.247, 418.590 114.885 C 404.879 126.111, 381.157 146.909, 371.163 156.468 C 363.622 163.681, 362.726 164.262, 361.774 162.561 C 361.195 161.527, 356.110 154.565, 350.474 147.090 C 324.515 112.663, 309.031 99.777, 291.920 98.362 C 273.390 96.830, 258.546 103.365, 251.446 116.181 C 248.906 120.768, 248.503 122.537, 248.525 129.030 C 248.546 135.201, 249.052 137.585, 251.326 142.235 C 255.886 151.555, 276.617 178.851, 304.365 212.071 L 309.854 218.641 297.059 233.279 C 272.999 260.806, 253.635 285.884, 252.102 291.500 C 249.565 300.800, 251.526 310.526, 257.053 316.053 C 267.884 326.884, 283.390 319.535, 337.861 277.750 C 345.569 271.837, 352.201 267, 352.599 267 C 352.997 267, 360.112 273.659, 368.411 281.799 C 404.738 317.426, 423.107 327.246, 430.384 314.927 L 432.149 311.939 428.825 313.966 C 424.614 316.533, 421.719 316.526, 416.373 313.938 C 406.811 309.310, 393.180 290.889, 374.982 258 C 361.623 233.857, 350.278 217.467, 341.591 209.757 C 337.667 206.274, 330.266 204, 322.856 204 C 313.815 204, 306.605 200.790, 299.467 193.588 C 289.403 183.432, 282.447 167.283, 281.308 151.427 C 280.634 142.050, 281.909 137.003, 285.707 134.016 C 295.120 126.612, 325.843 140.464, 339.166 158.119 C 345.608 166.655, 347.183 174.287, 345.571 189.154 C 345.115 193.364, 345.045 198.426, 345.416 200.403 C 346.708 207.292, 364.634 228.289, 382.460 243.794 C 402.695 261.394, 415.768 274.010, 422.090 282.036 C 425.533 286.407, 428.522 289.811, 428.732 289.601 C 429.900 288.434, 414.919 253.066, 407.021 238.340 L 403.180 231.180 411.840 225.420 C 440.537 206.333, 468.062 186.791, 474.021 181.275 C 491.579 165.018, 500.800 146.093, 499.734 128.500 C 498.930 115.236, 492.269 104.725, 481.248 99.333 C 476.426 96.974, 474.124 96.516, 466.033 96.306 C 460.143 96.153, 454.263 96.620, 450.647 97.529 M 411 156.535 C 398.625 165.538, 387.495 174.160, 386.267 175.697 C 385.039 177.233, 383.534 180.968, 382.924 183.995 C 380.626 195.395, 379.376 197.487, 369.189 206.985 C 359.599 215.926, 359.551 215.995, 361.519 217.920 C 363.483 219.840, 363.569 219.806, 371.500 213.930 C 383.557 204.998, 386.072 204.001, 396.566 203.995 C 404.061 203.991, 406.092 203.628, 409.175 201.745 C 413.720 198.969, 453 164.257, 453 163.017 C 453 160.007, 448.732 162.785, 428.283 179.103 C 415.752 189.102, 404.825 197.332, 404 197.392 C 399.389 197.725, 404.116 192.757, 422.500 177.947 C 449.828 155.933, 448.557 157.128, 446.659 155.231 C 445.571 154.142, 444.708 153.974, 443.800 154.672 C 443.085 155.223, 433.050 163.253, 421.500 172.518 C 401.823 188.302, 397.281 191.158, 396.305 188.361 C 396.086 187.735, 405.796 179.269, 417.883 169.549 C 429.969 159.829, 440.379 151.249, 441.015 150.482 C 442.332 148.894, 441.534 147, 439.547 147 C 438.813 147, 428.153 155.111, 415.858 165.026 C 403.563 174.940, 392.865 182.927, 392.085 182.776 C 391.304 182.624, 390.492 181.978, 390.280 181.340 C 390.067 180.702, 400.291 171.774, 413 161.500 C 433.873 144.626, 437.429 141.126, 434.438 140.396 C 433.922 140.271, 423.375 147.533, 411 156.535 M 18.848 196.018 C 8.226 201.630, 5.854 221.298, 14.628 231.010 C 19.835 236.773, 31.130 238.590, 38.308 234.817 C 40.626 233.600, 40.348 227.307, 38 227.841 C 33.016 228.974, 26.058 229.101, 24.174 228.093 C 20.388 226.067, 18.751 221.417, 19.176 213.897 C 19.772 203.339, 24.304 199.682, 33.400 202.420 L 38.043 203.817 39.522 200.958 C 41.593 196.952, 41.419 196.342, 37.851 195.098 C 32.811 193.341, 23.018 193.815, 18.848 196.018 M 56.868 196.750 C 56.273 198.262, 55.430 200.625, 54.995 202 C 54.560 203.375, 51.702 211.588, 48.644 220.250 L 43.084 236 47.962 236 L 52.839 236 54.500 231 L 56.161 226 63.522 226 L 70.884 226 72.220 230.750 C 73.553 235.485, 73.572 235.501, 78.279 235.805 C 80.875 235.972, 83 235.721, 83 235.245 C 83 234.442, 73.942 207.840, 70.403 198.250 L 68.835 194 63.393 194 C 58.385 194, 57.864 194.219, 56.868 196.750 M 88.916 194.700 C 88.870 195.140, 88.855 204.500, 88.881 215.500 L 88.929 235.500 93.101 235.814 L 97.272 236.128 96.799 220.575 L 96.326 205.021 99.474 210.261 C 101.205 213.142, 105.229 220.113, 108.416 225.750 L 114.211 236 120.105 236 L 126 236 126 215 L 126 194 122.026 194 L 118.052 194 117.776 209.250 L 117.500 224.500 108.882 209.500 L 100.263 194.500 94.632 194.200 C 91.534 194.035, 88.962 194.260, 88.916 194.700 M 132 198 L 132 202 137.500 202 L 143 202 143 219.055 L 143 236.110 147.750 235.805 L 152.500 235.500 152.201 220 C 152.037 211.475, 152.271 203.966, 152.721 203.314 C 153.171 202.662, 155.780 201.987, 158.519 201.814 C 163.488 201.501, 163.501 201.491, 163.810 197.750 L 164.121 194 148.060 194 L 132 194 132 198 M 170 215 L 170 236 182 236 L 194 236 194 232.500 C 194 229.124, 193.867 229, 190.250 228.989 C 188.188 228.983, 184.813 228.699, 182.750 228.358 C 179.015 227.741, 179 227.719, 179 222.869 L 179 218 186 218 L 193 218 193 214.546 L 193 211.091 186.250 210.796 L 179.500 210.500 179.193 206.250 L 178.885 202 186.443 202 L 194 202 194 198 L 194 194 182 194 L 170 194 170 215 M 202 214.969 L 202 236 214.500 236 L 227 236 227 232.567 C 227 230.018, 226.488 228.972, 225.009 228.503 C 223.914 228.155, 222.532 228.171, 221.938 228.538 C 221.344 228.905, 218.865 228.907, 216.429 228.542 L 212 227.877 212 222.984 L 212 218.091 218.750 217.796 L 225.500 217.500 225.813 214.250 L 226.127 211 219.063 211 L 212 211 212 206.544 L 212 202.088 219.250 201.794 L 226.500 201.500 226.500 198 L 226.500 194.500 214.250 194.219 L 202 193.938 202 214.969 M 235 215 L 235 236 238.974 236 L 242.948 236 243.224 221.047 L 243.500 206.093 252.014 220.797 L 260.528 235.500 266.264 235.800 L 272 236.100 272 215.050 L 272 194 267.951 194 L 263.902 194 264.201 209.501 C 264.365 218.027, 264.438 225.002, 264.362 225.001 C 264.287 225.001, 260.237 218.031, 255.362 209.514 L 246.500 194.027 240.750 194.014 L 235 194 235 215 M 61.172 208.660 C 58.145 218.627, 58.212 219, 63.031 219 C 65.348 219, 67.256 218.468, 67.516 217.750 C 67.766 217.063, 66.929 213.127, 65.657 209.005 L 63.344 201.510 61.172 208.660 M 341 228.442 C 337.425 230.801, 328.425 236.018, 321 240.035 C 279.797 262.329, 262 276.953, 262 288.518 C 262 295.168, 268.895 300.833, 275.297 299.442 C 287.496 296.791, 303.184 283.711, 327.416 255.988 C 333.420 249.120, 341.492 240.254, 345.354 236.287 C 352.104 229.354, 352.324 228.975, 351.020 226.537 C 350.273 225.141, 349.176 224.035, 348.581 224.077 C 347.986 224.119, 344.575 226.083, 341 228.442" stroke="none" fill="#dcd9d9" fill-rule="evenodd"/></svg>